<svg viewBox="0 0 24 24" role="img" aria-hidden="true" xmlns="http://www.w3.org/2000/svg">
  <path d="M9.7 3.8 10.4 2h3.2l.7 1.8a1.9 1.9 0 0 0 2.2 1.1l1.9-.5 1.6 2.8-1.3 1.3a1.9 1.9 0 0 0 0 2.9L20 12.8l-1.6 2.8-1.9-.5a1.9 1.9 0 0 0-2.2 1.1l-.7 1.8h-3.2l-.7-1.8a1.9 1.9 0 0 0-2.2-1.1l-1.9.5L4 12.8l1.3-1.4a1.9 1.9 0 0 0 0-2.9L4 7.2l1.6-2.8 1.9.5a1.9 1.9 0 0 0 2.2-1.1Z" fill="none" stroke="#fff" stroke-width="1.35" stroke-linecap="round" stroke-linejoin="round"/>
  <circle cx="12" cy="10" r="3" fill="none" stroke="#fff" stroke-width="1.35"/>
</svg>
